<svg width="24" height="24" viewBox="0 0 24 24" fill="none" xmlns="http://www.w3.org/2000/svg">
<path d="M14.5 12C14.5 11.337 14.2366 10.7011 13.7678 10.2322C13.2989 9.76339 12.663 9.5 12 9.5C11.337 9.5 10.7011 9.76339 10.2322 10.2322C9.76339 10.7011 9.5 11.337 9.5 12C9.5 12.663 9.76339 13.2989 10.2322 13.7678C10.7011 14.2366 11.337 14.5 12 14.5C12.663 14.5 13.2989 14.2366 13.7678 13.7678C14.2366 13.2989 14.5 12.663 14.5 12Z" stroke="black" stroke-width="1.5" stroke-linecap="round" stroke-linejoin="round"/>
<path d="M9.99994 4.89C9.99994 6.325 8.19794 7.424 6.92594 6.682C4.65494 5.459 2.92994 8.827 4.93594 10.178C6.15994 10.892 6.16094 13.058 4.93594 13.773C2.77294 15.084 4.74694 18.433 6.92594 17.259C8.30494 16.455 10.0009 17.771 10.0009 19.215C10.0009 21.626 13.9809 21.564 13.9809 19.215C13.9809 17.744 15.6509 16.44 17.0549 17.259C19.2949 18.466 21.2229 14.947 19.0449 13.773C17.8189 13.058 17.8199 10.883 19.0449 10.169C21.2079 8.858 19.2349 5.509 17.0549 6.682C15.8119 7.408 13.9819 6.319 13.9809 4.89C13.9809 2.33 10.0009 2.41 10.0009 4.89" stroke="black" stroke-width="1.5" stroke-linecap="round" stroke-linejoin="round"/>
</svg>
