<svg xmlns="http://www.w3.org/2000/svg" version="1.1" xmlns:xlink="http://www.w3.org/1999/xlink" xmlns:svgjs="http://svgjs.dev/svgjs" width="84" height="84"><svg width="84" height="84" viewBox="0 0 84 84" fill="none" xmlns="http://www.w3.org/2000/svg">
<g clip-path="url(#clip0_7_5)">
<rect x="1.5" y="1.5" width="81" height="81" rx="6.5" fill="black" stroke="white" stroke-width="3"></rect>
<path d="M38.0625 46.1562H25.9062V41.25H38.0625C40.4167 41.25 42.3229 40.875 43.7812 40.125C45.2396 39.375 46.3021 38.3333 46.9688 37C47.6562 35.6667 48 34.1458 48 32.4375C48 30.875 47.6562 29.4062 46.9688 28.0312C46.3021 26.6562 45.2396 25.5521 43.7812 24.7188C42.3229 23.8646 40.4167 23.4375 38.0625 23.4375H27.3125V64H21.2812V18.5H38.0625C41.5 18.5 44.4062 19.0938 46.7812 20.2812C49.1562 21.4688 50.9583 23.1146 52.1875 25.2188C53.4167 27.3021 54.0312 29.6875 54.0312 32.375C54.0312 35.2917 53.4167 37.7812 52.1875 39.8438C50.9583 41.9062 49.1562 43.4792 46.7812 44.5625C44.4062 45.625 41.5 46.1562 38.0625 46.1562ZM64.5576 41.8105V64H59.123V41.8105H64.5576ZM58.7539 36.0068C58.7539 35.2002 59.0273 34.5303 59.5742 33.9971C60.1348 33.4639 60.8867 33.1973 61.8301 33.1973C62.7734 33.1973 63.5186 33.4639 64.0654 33.9971C64.626 34.5303 64.9062 35.2002 64.9062 36.0068C64.9062 36.7998 64.626 37.4629 64.0654 37.9961C63.5186 38.5293 62.7734 38.7959 61.8301 38.7959C60.8867 38.7959 60.1348 38.5293 59.5742 37.9961C59.0273 37.4629 58.7539 36.7998 58.7539 36.0068Z" fill="white"></path>
</g>
<defs>
<clipPath id="SvgjsClipPath1138">
<rect width="84" height="84" fill="white"></rect>
</clipPath>
</defs>
</svg><style>@media (prefers-color-scheme: light) { :root { filter: none; } }
@media (prefers-color-scheme: dark) { :root { filter: none; } }
</style></svg>